<?xml version="1.0" encoding="UTF-8" standalone="no"?>
<svg
   height="24px"
   viewBox="0 -960 960 960"
   width="24px"
   fill="#5f6368"
   version="1.1"
   id="svg134"
   sodipodi:docname="folder_code_24dp_5F6368_FILL0_wght400_GRAD0_opsz24.svg"
   xml:space="preserve"
   inkscape:version="1.2 (dc2aeda, 2022-05-15)"
   xmlns:inkscape="http://www.inkscape.org/namespaces/inkscape"
   xmlns:sodipodi="http://sodipodi.sourceforge.net/DTD/sodipodi-0.dtd"
   xmlns="http://www.w3.org/2000/svg"
   xmlns:svg="http://www.w3.org/2000/svg"><defs
     id="defs138" /><sodipodi:namedview
     id="namedview136"
     pagecolor="#ffffff"
     bordercolor="#000000"
     borderopacity="0.25"
     inkscape:showpageshadow="2"
     inkscape:pageopacity="0.0"
     inkscape:pagecheckerboard="0"
     inkscape:deskcolor="#d1d1d1"
     showgrid="false"
     inkscape:zoom="27.812867"
     inkscape:cx="16.59304"
     inkscape:cy="10.372897"
     inkscape:window-width="1704"
     inkscape:window-height="935"
     inkscape:window-x="0"
     inkscape:window-y="38"
     inkscape:window-maximized="0"
     inkscape:current-layer="svg134" /><path
     id="path132"
     style="fill:#000000"
     d="M 240 -880 C 218.00002 -880 199.18228 -872.15103 183.51562 -856.48438 C 167.84897 -840.81772 160 -821.99998 160 -800 L 160 -160 C 160 -138.00002 167.84897 -119.18228 183.51562 -103.51562 C 199.18228 -87.848974 218.00002 -80 240 -80 L 360 -80 L 360 -160 L 240 -160 L 240 -800 L 520 -800 L 520 -600 L 720 -600 L 720 -400 L 800 -400 L 800 -640 L 560 -880 L 240 -880 z M 543.98438 -351.01562 L 400 -207.03125 L 543.98438 -62.96875 L 600 -120 L 512.96875 -207.03125 L 600 -293.98438 L 543.98438 -351.01562 z M 736.01562 -351.01562 L 680 -293.98438 L 767.03125 -207.03125 L 680 -120 L 736.01562 -62.96875 L 880 -207.03125 L 736.01562 -351.01562 z " /><g
     style="fill:#000000"
     id="g370" /></svg>
